<svg width="350" height="70" viewBox="0 0 350 70" fill="none" xmlns="http://www.w3.org/2000/svg">
<path d="M160.57 30.7067V69.0667H172.406V30.7067H193.305V69.0667H205.142V30.7067H224.744V69.0667H236.581V21.9333H205.048V18.2933C205.048 15.1822 205.773 12.9422 207.225 11.5733C208.677 10.1422 210.634 9.42666 213.096 9.42666C214.17 9.42666 215.274 9.52 216.411 9.70666C217.547 9.89333 218.526 10.1422 219.346 10.4533V1.30667C218.21 0.80889 216.853 0.466666 215.274 0.279993C213.759 0.0933332 212.307 0 210.919 0C205.174 0 200.786 1.49333 197.756 4.48C194.789 7.46667 193.305 11.8844 193.305 17.7333V21.9333H172.312V18.2933C172.312 16.1778 172.659 14.4978 173.353 13.2533C174.111 11.9467 175.121 10.9822 176.383 10.36C177.709 9.73777 179.193 9.42666 180.834 9.42666C181.907 9.42666 183.012 9.52 184.148 9.70666C185.285 9.89333 186.263 10.1422 187.084 10.4533V1.30667C185.947 0.80889 184.59 0.466666 183.012 0.279993C181.497 0.0933332 180.045 0 178.656 0C172.722 0 168.208 1.49333 165.115 4.48C162.085 7.46667 160.57 11.8844 160.57 17.7333V21.9333H150.5V30.7067H160.57Z" fill="white"/>
<path fill-rule="evenodd" clip-rule="evenodd" d="M144.515 30.7067H144.51C144.477 31.7104 144.461 32.7059 144.461 33.6933V69.0667H132.719L132.649 61.9557C131.502 64.0079 129.821 65.7249 127.605 67.1067C124.512 69.0356 121.008 70 117.094 70C112.927 70 109.266 69.0356 106.11 67.1067C102.953 65.1156 100.491 62.2844 98.7234 58.6133C96.9558 54.9422 96.072 50.5556 96.072 45.4533C96.072 40.3511 96.9558 35.9956 98.7234 32.3867C100.491 28.7156 102.953 25.9156 106.11 23.9867C109.266 21.9956 112.927 21 117.094 21C121.134 21 124.67 21.9956 127.7 23.9867C130.11 25.4894 131.887 27.4075 133.033 29.741L133.035 21.9333H144.515V30.7067ZM120.408 61.04C124.133 61.04 127.132 59.7644 129.404 57.2133C131.677 54.6 132.813 50.68 132.813 45.4533C132.813 40.2267 131.677 36.3378 129.404 33.7867C127.132 31.2356 124.133 29.96 120.408 29.96C116.684 29.96 113.685 31.2356 111.412 33.7867C109.14 36.3378 108.003 40.2267 108.003 45.4533C108.003 50.68 109.108 54.6 111.318 57.2133C113.59 59.7644 116.621 61.04 120.408 61.04Z" fill="white"/>
<path d="M11.5526 68.04C16.0979 69.3467 21.0536 70 26.4196 70C31.7855 70 36.4255 69.1911 40.3395 67.5733C44.2536 65.8933 47.2838 63.5911 49.4302 60.6667C51.5765 57.68 52.6497 54.2267 52.6497 50.3067C52.6497 45.5156 51.1346 41.72 48.1044 38.92C45.0742 36.0578 40.4027 34.0044 34.0898 32.76L23.4841 30.7067C19.7594 29.96 17.108 28.9022 15.5298 27.5333C14.0147 26.1644 13.2571 24.3289 13.2571 22.0267C13.2571 19.04 14.4881 16.7067 16.9502 15.0267C19.4754 13.2844 22.979 12.4133 27.4612 12.4133C31.4383 12.4133 35.0367 12.9733 38.2563 14.0933C41.4759 15.1511 44.4429 16.8 47.1575 19.04L50.9453 10.08C48.2307 7.59111 44.8533 5.69333 40.813 4.38667C36.7728 3.01777 32.3853 2.33333 27.6506 2.33333C22.3477 2.33333 17.7077 3.17333 13.7306 4.85333C9.75345 6.53333 6.66013 8.89777 4.45061 11.9467C2.24109 14.9956 1.13633 18.5733 1.13633 22.68C1.13633 27.5956 2.65142 31.5156 5.68163 34.44C8.71183 37.3644 13.2887 39.4489 19.4122 40.6933L30.1126 42.84C34.0266 43.6489 36.7412 44.6756 38.2563 45.92C39.7714 47.1022 40.5289 48.8444 40.5289 51.1467C40.5289 53.76 39.4242 55.8755 37.2147 57.4933C35.0051 59.1111 31.4068 59.92 26.4196 59.92C23.4525 59.92 20.6432 59.6711 17.9918 59.1733C15.3404 58.6133 12.8468 57.8356 10.511 56.84C8.17523 55.7822 5.93414 54.5067 3.78775 53.0133L0 62.44C3.21959 64.8044 7.07047 66.6711 11.5526 68.04Z" fill="white"/>
<path d="M70.3242 65.6133C73.2281 68.5378 77.5209 70 83.2025 70C84.402 70 85.633 69.8756 86.8956 69.6267C88.2213 69.44 89.4208 69.1289 90.494 68.6933V59.4533C89.6733 59.7645 88.821 60.0133 87.9372 60.2C87.1165 60.3867 86.1065 60.48 84.907 60.48C82.6975 60.48 80.9615 59.8267 79.6989 58.52C78.4363 57.2133 77.805 54.9422 77.805 51.7067V30.7067H94.0886L100.1 21.9333H77.805V6.90667L65.9683 6.895V21.9333H56.783V30.7067H65.9683V52.4533C65.9683 58.3022 67.4202 62.6889 70.3242 65.6133Z" fill="white"/>
<path d="M224.081 12.005V1.68H236.565V12.005H224.081Z" fill="white"/>
<path fill-rule="evenodd" clip-rule="evenodd" d="M258.261 67.0133C261.859 69.0044 266.121 70 271.045 70C275.969 70 280.23 69.0044 283.828 67.0133C287.49 65.0222 290.299 62.1911 292.256 58.52C294.276 54.8489 295.286 50.4933 295.286 45.4533C295.286 40.4133 294.276 36.0889 292.256 32.48C291.744 31.5204 291.175 30.6182 290.547 29.7733H305.409C305.466 31.094 305.494 32.4006 305.494 33.6933V69.0667H317.331V42.4667C317.331 38.7333 318.404 35.7467 320.55 33.5067C322.697 31.2667 325.601 30.1467 329.262 30.1467C332.229 30.1467 334.439 30.9867 335.891 32.6667C337.406 34.2844 338.163 36.9911 338.163 40.7867V69.0667H350V40.2267C350 33.6311 348.58 28.7778 345.739 25.6667C342.898 22.5555 338.668 21 333.05 21C329.136 21 325.695 21.9022 322.728 23.7067C320.538 24.9925 318.744 26.702 317.345 28.8353V21H271.04C266.118 21.0006 261.858 21.9962 258.261 23.9867C254.663 25.9778 251.853 28.8089 249.833 32.48C247.876 36.0889 246.898 40.4133 246.898 45.4533C246.898 50.4933 247.876 54.8489 249.833 58.52C251.853 62.1911 254.663 65.0222 258.261 67.0133ZM279.946 57.2133C277.736 59.7644 274.769 61.04 271.045 61.04C267.32 61.04 264.353 59.7644 262.143 57.2133C259.934 54.6 258.829 50.68 258.829 45.4533C258.829 40.2267 259.934 36.3378 262.143 33.7867C264.353 31.2356 267.32 29.96 271.045 29.96C274.769 29.96 277.736 31.2356 279.946 33.7867C282.155 36.3378 283.26 40.2267 283.26 45.4533C283.26 50.68 282.155 54.6 279.946 57.2133Z" fill="white"/>
</svg>
