<svg width="24" height="26" viewBox="0 0 24 26" fill="none" xmlns="http://www.w3.org/2000/svg">
<g filter="url(#filter0_d_38_76157)">
<path fill-rule="evenodd" clip-rule="evenodd" d="M12.0026 15.8665C10.5838 15.8708 9.21211 15.3578 8.14428 14.4236C7.79789 14.1206 7.27142 14.1557 6.96839 14.5021C6.66535 14.8485 6.7005 15.375 7.04689 15.678C8.41982 16.8791 10.1834 17.5386 12.0076 17.5332C13.8317 17.5277 15.5913 16.8576 16.9571 15.6484C18.3228 14.4391 19.201 12.7735 19.4272 10.9635C19.6535 9.1534 19.2123 7.32292 18.1863 5.81467C17.1602 4.30643 15.6197 3.22383 13.853 2.76953C12.0864 2.31522 10.2147 2.52035 8.58833 3.34653C7.66569 3.81522 6.8579 4.46557 6.20835 5.25003V3.39965C6.20835 2.93941 5.83526 2.56631 5.37502 2.56631C4.91478 2.56631 4.54169 2.93941 4.54169 3.39965V7.56631C4.54169 8.02655 4.91478 8.39965 5.37502 8.39965H5.77228C5.78508 8.39994 5.79785 8.39994 5.81059 8.39965H9.54169C10.0019 8.39965 10.375 8.02655 10.375 7.56631C10.375 7.10608 10.0019 6.73298 9.54169 6.73298H7.17511C7.72357 5.93363 8.46675 5.27767 9.34317 4.83245C10.6081 4.18987 12.0639 4.03033 13.4379 4.38368C14.812 4.73703 16.0102 5.57905 16.8082 6.75212C17.6063 7.9252 17.9494 9.34891 17.7734 10.7567C17.5975 12.1646 16.9144 13.46 15.8522 14.4005C14.79 15.3411 13.4214 15.8623 12.0026 15.8665Z" fill="#194BAF"/>
</g>
<defs>
<filter id="filter0_d_38_76157" x="-2" y="0" width="28" height="28" filterUnits="userSpaceOnUse" color-interpolation-filters="sRGB">
<feFlood flood-opacity="0" result="BackgroundImageFix"/>
<feColorMatrix in="SourceAlpha" type="matrix" values="0 0 0 0 0 0 0 0 0 0 0 0 0 0 0 0 0 0 127 0" result="hardAlpha"/>
<feOffset dy="4"/>
<feGaussianBlur stdDeviation="2"/>
<feComposite in2="hardAlpha" operator="out"/>
<feColorMatrix type="matrix" values="0 0 0 0 0 0 0 0 0 0 0 0 0 0 0 0 0 0 0.25 0"/>
<feBlend mode="normal" in2="BackgroundImageFix" result="effect1_dropShadow_38_76157"/>
<feBlend mode="normal" in="SourceGraphic" in2="effect1_dropShadow_38_76157" result="shape"/>
</filter>
</defs>
</svg>
